<svg width="256" height="256" viewBox="0 0 256 256" fill="none" xmlns="http://www.w3.org/2000/svg">
  <rect width="256" height="256" rx="52" fill="#080B11"/>
  <path
    d="M88 82C88 62.1177 104.118 46 124 46H147C190.078 46 224 80.3695 224 128C224 175.63 190.078 210 147 210H124C104.118 210 88 193.882 88 174V82ZM136 92V164H147C165.112 164 178 151.13 178 128C178 104.87 165.112 92 147 92H136Z"
    fill="#65C8DD"
  />
  <rect
    x="145.943"
    y="19"
    width="34"
    height="108"
    rx="17"
    transform="rotate(-13 145.943 19)"
    fill="#65C8DD"
  />
  <rect
    x="178.043"
    y="33"
    width="30"
    height="82"
    rx="15"
    transform="rotate(-36 178.043 33)"
    fill="#65C8DD"
  />
</svg>
